<?xml version="1.0" standalone="no"?>
<svg xmlns:xlink="http://www.w3.org/1999/xlink" id="wave" style="transform:rotate(180deg); transition: 0.3s" viewBox="0 0 1440 490" version="1.1" xmlns="http://www.w3.org/2000/svg"><defs><linearGradient id="sw-gradient-0" x1="0" x2="0" y1="1" y2="0"><stop stop-color="rgba(0, 194.534, 255, 1)" offset="0%"/><stop stop-color="rgba(11, 230.204, 255, 1)" offset="100%"/></linearGradient></defs><path style="transform:translate(0, 0px); opacity:1" fill="url(#sw-gradient-0)" d="M0,441L60,375.7C120,310,240,180,360,106.2C480,33,600,16,720,24.5C840,33,960,65,1080,106.2C1200,147,1320,196,1440,204.2C1560,212,1680,180,1800,138.8C1920,98,2040,49,2160,57.2C2280,65,2400,131,2520,171.5C2640,212,2760,229,2880,253.2C3000,278,3120,310,3240,326.7C3360,343,3480,343,3600,334.8C3720,327,3840,310,3960,310.3C4080,310,4200,327,4320,310.3C4440,294,4560,245,4680,220.5C4800,196,4920,196,5040,179.7C5160,163,5280,131,5400,138.8C5520,147,5640,196,5760,204.2C5880,212,6000,180,6120,187.8C6240,196,6360,245,6480,261.3C6600,278,6720,261,6840,245C6960,229,7080,212,7200,196C7320,180,7440,163,7560,187.8C7680,212,7800,278,7920,310.3C8040,343,8160,343,8280,294C8400,245,8520,147,8580,98L8640,49L8640,490L8580,490C8520,490,8400,490,8280,490C8160,490,8040,490,7920,490C7800,490,7680,490,7560,490C7440,490,7320,490,7200,490C7080,490,6960,490,6840,490C6720,490,6600,490,6480,490C6360,490,6240,490,6120,490C6000,490,5880,490,5760,490C5640,490,5520,490,5400,490C5280,490,5160,490,5040,490C4920,490,4800,490,4680,490C4560,490,4440,490,4320,490C4200,490,4080,490,3960,490C3840,490,3720,490,3600,490C3480,490,3360,490,3240,490C3120,490,3000,490,2880,490C2760,490,2640,490,2520,490C2400,490,2280,490,2160,490C2040,490,1920,490,1800,490C1680,490,1560,490,1440,490C1320,490,1200,490,1080,490C960,490,840,490,720,490C600,490,480,490,360,490C240,490,120,490,60,490L0,490Z"/></svg>